<!-- <svg xmlns="http://www.w3.org/2000/svg" fill="none" class="icon icon-cart" viewBox="0 0 40 40"><path fill="currentColor" fill-rule="evenodd" d="M20.5 6.5a4.75 4.75 0 0 0-4.75 4.75v.56h-3.16l-.77 11.6a5 5 0 0 0 4.99 5.34h7.38a5 5 0 0 0 4.99-5.33l-.77-11.6h-3.16v-.57A4.75 4.75 0 0 0 20.5 6.5m3.75 5.31v-.56a3.75 3.75 0 1 0-7.5 0v.56zm-7.5 1h7.5v.56a3.75 3.75 0 1 1-7.5 0zm-1 0v.56a4.75 4.75 0 1 0 9.5 0v-.56h2.22l.71 10.67a4 4 0 0 1-3.99 4.27h-7.38a4 4 0 0 1-4-4.27l.72-10.67z"/></svg> -->

<svg class="icon icon-cart" viewBox="0 0 29 25" fill="currentColor" xmlns="http://www.w3.org/2000/svg">
    <path d="M26.2121 6.03141L22.7044 15.1515H8.50737L5.47703 0H0V2.2727H3.61389L6.64418 17.4243H24.2653L28.3334 6.84732L26.2121 6.03141Z" fill="white"/>
    <path d="M10.6061 18.1819C8.7263 18.1819 7.19702 19.7111 7.19702 21.591C7.19702 23.4708 8.72636 25 10.6061 25C12.4859 25 14.0152 23.4708 14.0152 21.591C14.0152 19.7111 12.4858 18.1819 10.6061 18.1819ZM10.6061 22.7273C9.9795 22.7273 9.46972 22.2176 9.46972 21.591C9.46972 20.9643 9.9795 20.4546 10.6061 20.4546C11.2327 20.4546 11.7425 20.9643 11.7425 21.591C11.7425 22.2176 11.2327 22.7273 10.6061 22.7273Z" fill="white"/>
    <path d="M20.4545 18.1819C18.5747 18.1819 17.0454 19.7111 17.0454 21.591C17.0454 23.4708 18.5747 25 20.4545 25C22.3343 25 23.8636 23.4708 23.8636 21.591C23.8636 19.7111 22.3342 18.1819 20.4545 18.1819ZM20.4545 22.7273C19.8279 22.7273 19.3181 22.2176 19.3181 21.591C19.3181 20.9643 19.8279 20.4546 20.4545 20.4546C21.0811 20.4546 21.5909 20.9643 21.5909 21.591C21.5909 22.2176 21.0811 22.7273 20.4545 22.7273Z" fill="white"/>
</svg>
